<?xml version="1.0" encoding="utf-8"?>
<!-- Svg Vector Icons : http://www.onlinewebfonts.com/icon -->
<!DOCTYPE svg PUBLIC "-//W3C//DTD SVG 1.1//EN" "http://www.w3.org/Graphics/SVG/1.1/DTD/svg11.dtd">
<svg version="1.1" xmlns="http://www.w3.org/2000/svg" xmlns:xlink="http://www.w3.org/1999/xlink" x="0px" y="0px" viewBox="0 0 1000 1000" enable-background="new 0 0 1000 1000" xml:space="preserve">
<metadata> Svg Vector Icons : http://www.onlinewebfonts.com/icon </metadata>
<g><path d="M211,794.2l220.6-93.9L296.2,567L211,794.2z"/><path d="M866.4,274.3L726.6,130.1L321.3,529.9l145.3,150.7L866.4,274.3z"/><path d="M981.6,101.8c0,0-37-41-79.6-72.1c-42.6-31.1-75.4,0-75.4,0l-72.1,72.1l146.4,145.8c0,0,61.7-62.3,80.7-83.6C1000.5,142.7,981.6,101.8,981.6,101.8z"/><path d="M825.7,869.7c0,10.1-8.2,18.3-18.3,18.3H125c-10.1,0-18.3-8.2-18.3-18.3v-677c0-10.1,8.2-18.3,18.3-18.3h433.8l90.4-96.1H32.1c-12.2,0-22.1,9.9-22.1,22.1v861.7c0,12.2,9.9,22.1,22.1,22.1h868.2c12.2,0,22.1-9.9,22.1-22.1V346.6l-96.7,89.8L825.7,869.7L825.7,869.7z"/></g>
</svg>