<?xml version="1.0" encoding="utf-8"?>
<!-- Svg Vector Icons : http://www.onlinewebfonts.com/icon -->
<!DOCTYPE svg PUBLIC "-//W3C//DTD SVG 1.1//EN" "http://www.w3.org/Graphics/SVG/1.1/DTD/svg11.dtd">
<svg version="1.1" xmlns="http://www.w3.org/2000/svg" xmlns:xlink="http://www.w3.org/1999/xlink" x="0px" y="0px" viewBox="0 0 1000 1000" enable-background="new 0 0 1000 1000" xml:space="preserve">
<metadata> Svg Vector Icons : http://www.onlinewebfonts.com/icon </metadata>
<g><path d="M326.8,10h357.7v39.6H326.8V10z"/><path d="M901.2,76.2H69.1V262h62.9l15.6,728h703.1l15.6-728h64.8V76.2H901.2z M190.1,202.5H808v0.1H190.1V202.5z M205.7,930.6l-15.2-708.1h81.9v613.2h19.8V222.4h88.5v613.2h19.8V222.4h89.6v613.2h19.8V222.4h91.9v613.2h19.8V222.4h88.5v613.2h19.8V222.4h77.6l-15.2,708.1H205.7z M871.5,202.5H808H190.1h-61.6v-66.9h743V202.5z"/><path d="M69.1,76.2v222.6h62.9L147.5,990h703.1l15.6-691.2h64.8V76.2H69.1z M796.3,934.5H201.8L186.6,260h77.7v554.2H281V260h97v554.2h16.7V260h97v554.2h16.7V260h97v554.2H622V260h97v554.2h16.7V260h75.8L796.3,934.5z M875.4,243.3H124.6V131.8h750.8V243.3z"/><path d="M302.3,12.9h395.5v44.4H302.3V12.9L302.3,12.9z"/></g>
</svg>